<svg width="20" height="17" viewBox="0 0 20 17" fill="none" xmlns="http://www.w3.org/2000/svg">
<path d="M10.17 12.0025C10.3766 11.4169 10.7597 10.9099 11.2666 10.5512C11.7735 10.1926 12.3791 10 13 10C13.6209 10 14.2265 10.1926 14.7334 10.5512C15.2403 10.9099 15.6234 11.4169 15.83 12.0025H20V14.0025H15.83C15.6234 14.588 15.2403 15.095 14.7334 15.4537C14.2265 15.8123 13.6209 16.0049 13 16.0049C12.3791 16.0049 11.7735 15.8123 11.2666 15.4537C10.7597 15.095 10.3766 14.588 10.17 14.0025H0V12.0025H10.17ZM4.17 2.00245C4.3766 1.41692 4.75974 0.909884 5.2666 0.55124C5.77346 0.192596 6.37909 0 7 0C7.62091 0 8.22654 0.192596 8.7334 0.55124C9.24026 0.909884 9.6234 1.41692 9.83 2.00245H20V4.00245H9.83C9.6234 4.58798 9.24026 5.09502 8.7334 5.45366C8.22654 5.8123 7.62091 6.0049 7 6.0049C6.37909 6.0049 5.77346 5.8123 5.2666 5.45366C4.75974 5.09502 4.3766 4.58798 4.17 4.00245H0V2.00245H4.17ZM7 4.00245C7.26522 4.00245 7.51957 3.89709 7.70711 3.70956C7.89464 3.52202 8 3.26767 8 3.00245C8 2.73723 7.89464 2.48288 7.70711 2.29534C7.51957 2.10781 7.26522 2.00245 7 2.00245C6.73478 2.00245 6.48043 2.10781 6.29289 2.29534C6.10536 2.48288 6 2.73723 6 3.00245C6 3.26767 6.10536 3.52202 6.29289 3.70956C6.48043 3.89709 6.73478 4.00245 7 4.00245ZM13 14.0025C13.2652 14.0025 13.5196 13.8971 13.7071 13.7096C13.8946 13.522 14 13.2677 14 13.0025C14 12.7372 13.8946 12.4829 13.7071 12.2953C13.5196 12.1078 13.2652 12.0025 13 12.0025C12.7348 12.0025 12.4804 12.1078 12.2929 12.2953C12.1054 12.4829 12 12.7372 12 13.0025C12 13.2677 12.1054 13.522 12.2929 13.7096C12.4804 13.8971 12.7348 14.0025 13 14.0025Z" fill="#516A70"/>
</svg>
