<svg width="249" height="40" viewBox="0 0 249 40" fill="none" xmlns="http://www.w3.org/2000/svg">
<g clip-path="url(#clip0_766_3134)">
<path d="M160.843 17.3009L151.747 14.3709V37.4314L152.492 39.2882H145.797L146.542 37.4314V14.3745L137.447 17.3009V12.7825H160.843V17.3009Z" fill="white"/>
<path d="M68.1572 12.7825L67.4157 14.6392V37.571L80.9676 34.641V39.2882H61.4619L62.2106 37.4314V14.6392L61.4619 12.7825H68.1572Z" fill="white"/>
<path fill-rule="evenodd" clip-rule="evenodd" d="M96.9376 39.2416H99.0727L109.458 12.7825H104.514L96.9376 39.2416Z" fill="white"/>
<path fill-rule="evenodd" clip-rule="evenodd" d="M92.7606 39.2416H98.3168L87.8134 12.7825H82.2573L92.7606 39.2416Z" fill="white"/>
<path fill-rule="evenodd" clip-rule="evenodd" d="M86.316 19.8409L85.2234 16.9753L83.5756 12.7825H89.0888L86.316 19.8409Z" fill="white"/>
<path fill-rule="evenodd" clip-rule="evenodd" d="M94.9351 39.2417H100.448L99.6566 37.2275H94.1434L94.9351 39.2417Z" fill="white"/>
<path d="M21.8522 14.3137L19.1439 18.1595C18.1193 16.7114 16.7618 15.5297 15.1855 14.7137C13.6091 13.8976 11.8598 13.4709 10.0842 13.4694C9.4256 13.4438 8.77165 13.59 8.18683 13.8936C7.602 14.1972 7.10649 14.6478 6.7491 15.2009C6.1616 16.1739 6.12935 16.5961 6.49475 17.6479C6.98756 18.8943 7.86612 19.9509 9.00238 20.6637C10.0165 21.3325 11.0652 21.9474 12.1441 22.5061C13.3012 23.1179 14.4726 23.701 15.6333 24.2949C17.3169 25.1821 19.4484 26.3197 21.107 27.7901C22.0711 28.5679 22.8125 29.586 23.2564 30.7415C23.3746 31.0863 23.4492 31.4444 23.4785 31.8076C23.6111 33.7538 22.7298 35.3851 21.3829 36.741C18.6066 39.5601 14.4583 40.0037 10.6789 40.0037C6.97836 40.0037 3.23842 38.7229 0.0179138 36.8948L2.80854 32.9596C3.93339 34.0614 5.22661 34.3119 6.52341 35.1454C8.29319 36.3172 10.2373 37.2022 12.2838 37.7677C13.8743 38.1648 16.0381 38.2793 17.4638 37.2597C17.9044 36.9365 18.2708 36.523 18.5385 36.047C18.9326 35.3708 18.9469 35.1705 18.757 34.4442C18.4771 33.485 17.9582 32.6124 17.2489 31.9078C15.1246 29.7112 11.6569 28.2301 8.43279 26.5451C5.70306 25.1141 3.12379 23.6259 2.27119 21.0501C2.01678 20.2818 1.93963 19.4661 2.04551 18.6639C2.18035 17.8116 2.48469 16.9948 2.94059 16.2618C3.39648 15.5288 3.99471 14.8944 4.70001 14.3959C7.00344 12.6787 10.0377 12.0706 12.8677 12.0706C16.2602 12.0706 18.9541 12.8648 21.8522 14.3137Z" fill="white"/>
<path d="M204.601 14.8465H199.628V29.4069H204.601C210.049 29.4069 212.69 25.7185 212.69 22.1267C212.69 18.5349 210.049 14.8465 204.601 14.8465ZM193.678 12.7859H206.575C209.673 12.7859 212.844 13.53 215.201 15.6479C216.775 17.0307 217.788 18.9415 218.047 21.0193C218.306 23.097 217.795 25.1976 216.609 26.9242C215.503 28.5045 213.961 29.729 212.17 30.448L210.63 31.0919L214.646 37.4205L216.003 39.3023H209.448L204.271 31.4819H199.614V37.4456L200.359 39.3023H193.678L194.423 37.4456V14.6355L193.678 12.7859Z" fill="white"/>
<path fill-rule="evenodd" clip-rule="evenodd" d="M234.32 12.8003H232.181L221.799 39.2559H226.743L234.32 12.8003Z" fill="white"/>
<path fill-rule="evenodd" clip-rule="evenodd" d="M238.497 12.8003H232.937L243.44 39.2559H249L238.497 12.8003Z" fill="white"/>
<path fill-rule="evenodd" clip-rule="evenodd" d="M226.725 32.2012L225.633 35.0667L223.985 39.256H229.498L226.725 32.2012Z" fill="white"/>
<path fill-rule="evenodd" clip-rule="evenodd" d="M236.319 12.8003H230.805L231.597 14.8144H237.11L236.319 12.8003Z" fill="white"/>
<path fill-rule="evenodd" clip-rule="evenodd" d="M123.669 6.98695L123.544 6.87963C121.91 5.51661 119.621 3.73501 119.621 3.73501L119.449 3.56329L119.091 3.92104L119.263 4.09276C119.263 4.09276 121.054 6.3752 122.412 8.00654L122.558 8.17827C120.37 8.37145 117.439 8.72204 117.439 8.72204H117.196V9.20858H117.439C117.439 9.20858 120.42 9.56633 122.616 9.75593L123.895 9.85253C124.049 9.91838 124.221 9.93463 124.385 9.89904H124.522C124.622 9.92408 124.905 9.98132 125.045 9.87042C125.424 9.84537 125.922 9.8096 126.477 9.7631C128.627 9.57349 131.536 9.21574 131.536 9.21574H131.779V8.72919H131.536C131.536 8.72919 128.623 8.37144 126.477 8.18184H126.424L126.563 8.01727C127.928 6.38594 129.712 4.10349 129.712 4.10349L129.884 3.93177L129.526 3.57402L129.354 3.74574C129.354 3.74574 127.065 5.53449 125.431 6.89037L125.306 6.99769C125.306 6.79019 125.277 6.57196 125.263 6.35016C125.073 3.77078 124.719 0.268414 124.719 0.268414V0.0251465H124.231V0.268414C124.231 0.268414 123.873 3.78509 123.687 6.35016C123.698 6.56123 123.68 6.76515 123.669 6.98695Z" fill="white"/>
<path fill-rule="evenodd" clip-rule="evenodd" d="M173.975 12.8003H171.84L161.455 39.2559H166.399L173.975 12.8003Z" fill="white"/>
<path fill-rule="evenodd" clip-rule="evenodd" d="M178.152 12.8003H172.596L183.096 39.2559H188.656L178.152 12.8003Z" fill="white"/>
<path fill-rule="evenodd" clip-rule="evenodd" d="M166.381 32.2012L165.288 35.0667L163.644 39.256H169.157L166.381 32.2012Z" fill="white"/>
<path fill-rule="evenodd" clip-rule="evenodd" d="M175.978 12.8003H170.465L171.256 14.8144H176.766L175.978 12.8003Z" fill="white"/>
<path fill-rule="evenodd" clip-rule="evenodd" d="M123.379 12.8003H121.24L110.859 39.2559H115.802L123.379 12.8003Z" fill="white"/>
<path fill-rule="evenodd" clip-rule="evenodd" d="M127.552 12.8003H121.996L132.499 39.2559H138.055L127.552 12.8003Z" fill="white"/>
<path fill-rule="evenodd" clip-rule="evenodd" d="M115.784 32.2012L114.692 35.0667L113.044 39.256H118.557L115.784 32.2012Z" fill="white"/>
<path fill-rule="evenodd" clip-rule="evenodd" d="M125.378 12.8003H119.864L120.656 14.8144H126.169L125.378 12.8003Z" fill="white"/>
<path fill-rule="evenodd" clip-rule="evenodd" d="M40.7883 12.8003H38.6497L28.2681 39.2559H33.2081L40.7883 12.8003Z" fill="white"/>
<path fill-rule="evenodd" clip-rule="evenodd" d="M44.9617 12.8003H39.4055L49.9089 39.2559H55.4651L44.9617 12.8003Z" fill="white"/>
<path fill-rule="evenodd" clip-rule="evenodd" d="M33.1938 32.2012L32.1012 35.0667L30.4533 39.256H35.9665L33.1938 32.2012Z" fill="white"/>
<path fill-rule="evenodd" clip-rule="evenodd" d="M42.7872 12.8003H37.274L38.0657 14.8144H43.5789L42.7872 12.8003Z" fill="white"/>
</g>
<defs>
<clipPath id="clip0_766_3134">
<rect width="249" height="40" fill="white"/>
</clipPath>
</defs>
</svg>
