<svg width="21" height="20" viewBox="0 0 21 20" fill="none" xmlns="http://www.w3.org/2000/svg">
<path d="M12.5 9.12042e-07C14.3299 -0.000872552 16.1049 0.625667 17.5288 1.77513C18.9527 2.92458 19.9395 4.52748 20.3246 6.31647C20.7097 8.10546 20.4699 9.97241 19.645 11.6059C18.8202 13.2395 17.4602 14.5408 15.792 15.293C15.2587 16.4719 14.4475 17.5039 13.4278 18.3004C12.4082 19.097 11.2105 19.6343 9.9376 19.8663C8.66467 20.0984 7.35446 20.0182 6.11933 19.6327C4.8842 19.2472 3.761 18.5678 2.84608 17.6529C1.93115 16.738 1.2518 15.6148 0.866279 14.3796C0.480761 13.1445 0.400584 11.8343 0.632624 10.5614C0.864663 9.28844 1.40199 8.0908 2.19854 7.07114C2.99508 6.05148 4.02705 5.24024 5.20596 4.707C5.84011 3.30389 6.86555 2.1135 8.15931 1.27861C9.45307 0.443714 10.9602 -0.000237065 12.5 9.12042e-07ZM8.49996 6C7.71203 6 6.93182 6.1552 6.20386 6.45672C5.47591 6.75825 4.81447 7.20021 4.25732 7.75736C3.70017 8.31451 3.25822 8.97595 2.95669 9.7039C2.65516 10.4319 2.49996 11.2121 2.49996 12C2.49996 12.7879 2.65516 13.5681 2.95669 14.2961C3.25822 15.0241 3.70017 15.6855 4.25732 16.2426C4.81447 16.7998 5.47591 17.2417 6.20386 17.5433C6.93182 17.8448 7.71203 18 8.49996 18C10.0913 18 11.6174 17.3679 12.7426 16.2426C13.8678 15.1174 14.5 13.5913 14.5 12C14.5 10.4087 13.8678 8.88258 12.7426 7.75736C11.6174 6.63214 10.0913 6 8.49996 6ZM9.49996 7V8H11.5V10H7.49996C7.37502 9.99977 7.25451 10.0463 7.16218 10.1305C7.06985 10.2147 7.01238 10.3304 7.00109 10.4548C6.9898 10.5793 7.02551 10.7034 7.10118 10.8028C7.17686 10.9023 7.28702 10.9697 7.40996 10.992L7.49996 11H9.49996C10.163 11 10.7989 11.2634 11.2677 11.7322C11.7366 12.2011 12 12.837 12 13.5C12 14.163 11.7366 14.7989 11.2677 15.2678C10.7989 15.7366 10.163 16 9.49996 16V17H7.49996V16H5.49996V14H9.49996C9.62491 14.0002 9.74541 13.9537 9.83775 13.8695C9.93008 13.7853 9.98755 13.6696 9.99884 13.5452C10.0101 13.4207 9.97442 13.2966 9.89874 13.1972C9.82307 13.0977 9.71291 13.0303 9.58996 13.008L9.49996 13H7.49996C6.83692 13 6.20104 12.7366 5.7322 12.2678C5.26336 11.7989 4.99996 11.163 4.99996 10.5C4.99996 9.83696 5.26336 9.20107 5.7322 8.73223C6.20104 8.26339 6.83692 8 7.49996 8V7H9.49996ZM12.5 2C11.6526 1.99901 10.8148 2.17794 10.0418 2.52496C9.26879 2.87198 8.57829 3.37918 8.01596 4.013C9.14623 3.94439 10.2782 4.1165 11.337 4.51795C12.3958 4.9194 13.3573 5.54105 14.1579 6.34178C14.9586 7.14252 15.5801 8.1041 15.9814 9.16293C16.3827 10.2218 16.5547 11.3537 16.486 12.484C17.3952 11.6756 18.0372 10.6099 18.3268 9.42831C18.6164 8.24668 18.54 7.00492 18.1076 5.86772C17.6752 4.73053 16.9074 3.75164 15.9059 3.06088C14.9044 2.37013 13.7166 2.00014 12.5 2Z" fill="#212E31"/>
</svg>
