<svg width="80" height="80" viewBox="0 0 80 80" fill="none" xmlns="http://www.w3.org/2000/svg">
<g clip-path="url(#clip0_270_6243)">
<path fill-rule="evenodd" clip-rule="evenodd" d="M22.9248 69.0835L33.3259 71.8308V68.2383L34.175 67.3931H40.1184V71.6193V74.5776H33.7505L25.8965 71.1966L22.9248 69.0835Z" fill="#CDBDB2"/>
<path fill-rule="evenodd" clip-rule="evenodd" d="M56.8877 69.0835L46.699 71.8308V68.2383L45.85 67.3931H39.9066V71.6193V74.5776H46.2745L54.1281 71.1966L56.8877 69.0835Z" fill="#CDBDB2"/>
<path fill-rule="evenodd" clip-rule="evenodd" d="M34.1752 61.2652L33.3262 68.2383L34.3873 67.393H45.425L46.6986 68.2383L45.8496 61.2652L44.1515 60.2085L35.6609 60.42L34.1752 61.2652Z" fill="#393939"/>
<path fill-rule="evenodd" clip-rule="evenodd" d="M28.4434 14.1431L33.5377 25.9764L35.8728 60.42H44.1509L46.6981 25.9764L51.3679 14.1431H28.4434Z" fill="#F89C35"/>
<path fill-rule="evenodd" clip-rule="evenodd" d="M6.15629 40.1342L0.212891 57.2501L15.0714 56.4049H24.6231V49.0092L24.1986 33.7949L22.0759 35.4854L6.15629 40.1342Z" fill="#F89D35"/>
<path fill-rule="evenodd" clip-rule="evenodd" d="M17.4062 42.0356L34.8119 42.4583L32.9017 51.3333L24.6232 49.2202L17.4062 42.0356Z" fill="#D87C30"/>
<path fill-rule="evenodd" clip-rule="evenodd" d="M17.4062 42.2471L24.6232 49.009V55.7709L17.4062 42.2471Z" fill="#EA8D3A"/>
<path fill-rule="evenodd" clip-rule="evenodd" d="M24.623 49.2202L33.1136 51.3333L35.8732 60.4198L33.9627 61.4762L24.623 55.9821V49.2202Z" fill="#F89D35"/>
<path fill-rule="evenodd" clip-rule="evenodd" d="M24.6229 55.9824L22.9248 69.0836L34.175 61.2653L24.6229 55.9824Z" fill="#EB8F35"/>
<path fill-rule="evenodd" clip-rule="evenodd" d="M34.8121 42.4585L35.8736 60.42L32.6895 51.2279L34.8121 42.4585Z" fill="#EA8E3A"/>
<path fill-rule="evenodd" clip-rule="evenodd" d="M14.8594 56.1939L24.6235 55.9824L22.9254 69.0836L14.8594 56.1939Z" fill="#D87C30"/>
<path fill-rule="evenodd" clip-rule="evenodd" d="M4.8827 74.7886L22.925 69.083L14.8589 56.1934L0.212891 57.2497L4.8827 74.7886Z" fill="#EB8F35"/>
<path fill-rule="evenodd" clip-rule="evenodd" d="M33.5383 25.9763L24.4112 33.5835L17.4062 42.0358L34.8119 42.67L33.5383 25.9763Z" fill="#E8821E"/>
<path fill-rule="evenodd" clip-rule="evenodd" d="M22.9248 69.0834L34.175 61.2651L33.3259 68.027V71.8306L25.6844 70.3513L22.9248 69.0834Z" fill="#DFCEC3"/>
<path fill-rule="evenodd" clip-rule="evenodd" d="M56.8877 69.0834L45.85 61.2651L46.699 68.027V71.8306L54.3405 70.3513L56.8877 69.0834Z" fill="#DFCEC3"/>
<path fill-rule="evenodd" clip-rule="evenodd" d="M30.1424 46.2622L32.4775 51.1225L24.199 49.0094L30.1424 46.2622Z" fill="#393939"/>
<path fill-rule="evenodd" clip-rule="evenodd" d="M4.66992 4.21143L33.5378 25.9761L28.656 14.1428L4.66992 4.21143Z" fill="#E88F35"/>
<path fill-rule="evenodd" clip-rule="evenodd" d="M4.67036 4.21143L0.849609 15.8335L2.97225 28.512L1.4864 29.3573L3.60904 31.259L1.91093 32.7382L4.24584 34.8513L2.75999 36.1192L6.15621 40.3454L22.076 35.4852C29.859 29.2868 33.6798 26.1172 33.5383 25.9763C33.3968 25.8354 23.7741 18.5805 4.67036 4.21143Z" fill="#8E5A30"/>
<path fill-rule="evenodd" clip-rule="evenodd" d="M73.6562 40.1342L79.5996 57.2501L64.7411 56.4049H55.1894V49.0092L55.6139 33.7949L57.7366 35.4854L73.6562 40.1342Z" fill="#F89D35"/>
<path fill-rule="evenodd" clip-rule="evenodd" d="M62.4062 42.0356L45.0006 42.4583L46.9108 51.3333L55.1893 49.2202L62.4062 42.0356Z" fill="#D87C30"/>
<path fill-rule="evenodd" clip-rule="evenodd" d="M62.4062 42.2471L55.1893 49.009V55.7709L62.4062 42.2471Z" fill="#EA8D3A"/>
<path fill-rule="evenodd" clip-rule="evenodd" d="M55.1895 49.2202L46.6989 51.3333L43.9393 60.4198L45.8498 61.4762L55.1895 55.9821V49.2202Z" fill="#F89D35"/>
<path fill-rule="evenodd" clip-rule="evenodd" d="M55.1896 55.9824L56.8877 69.0836L45.85 61.4765L55.1896 55.9824Z" fill="#EB8F35"/>
<path fill-rule="evenodd" clip-rule="evenodd" d="M45.0004 42.4585L43.9389 60.42L47.123 51.2279L45.0004 42.4585Z" fill="#EA8E3A"/>
<path fill-rule="evenodd" clip-rule="evenodd" d="M64.9531 56.1939L55.189 55.9824L56.8871 69.0836L64.9531 56.1939Z" fill="#D87C30"/>
<path fill-rule="evenodd" clip-rule="evenodd" d="M74.9298 74.7886L56.8875 69.083L64.9536 56.1934L79.5996 57.2497L74.9298 74.7886Z" fill="#EB8F35"/>
<path fill-rule="evenodd" clip-rule="evenodd" d="M46.2742 25.9763L55.4013 33.5835L62.4062 42.0358L45.0006 42.67L46.2742 25.9763Z" fill="#E8821E"/>
<path fill-rule="evenodd" clip-rule="evenodd" d="M49.6701 46.2622L47.335 51.1225L55.6135 49.0094L49.6701 46.2622Z" fill="#393939"/>
<path fill-rule="evenodd" clip-rule="evenodd" d="M75.1426 4.21143L46.2747 25.9761L51.1565 14.1428L75.1426 4.21143Z" fill="#E88F35"/>
<path fill-rule="evenodd" clip-rule="evenodd" d="M75.1421 4.21143L78.9629 15.8335L76.8402 28.512L78.3261 29.3573L76.2035 31.259L77.9016 32.7382L75.5667 34.8513L77.0525 36.1192L73.6563 40.3454L57.7365 35.4852C49.9535 29.2868 46.1327 26.1172 46.2742 25.9763C46.4157 25.8354 56.0384 18.5805 75.1421 4.21143Z" fill="#8E5A30"/>
</g>
<defs>
<clipPath id="clip0_270_6243">
<rect width="80" height="71" fill="white" transform="translate(0 4)"/>
</clipPath>
</defs>
</svg>
