<svg width="53" height="78" viewBox="0 0 53 78" fill="none" xmlns="http://www.w3.org/2000/svg">
<path d="M24.9349 13.9007L24.6869 13.6961C21.5213 10.9881 16.6902 7.14883 16.6902 7.14883L16.1114 7.75059C16.1114 7.75059 19.8676 12.661 22.5253 15.8984L22.8088 16.2475C18.5565 16.6206 12.3789 17.3787 12.3789 17.3787V18.2213C12.3789 18.2213 18.651 18.9915 22.9151 19.4248C23.8482 19.5091 26.5177 19.7136 26.624 19.7016C26.7303 19.6896 29.3526 19.5211 30.4156 19.4248C34.5971 19.0517 40.7392 18.2213 40.7392 18.2213V17.3787C40.7392 17.3787 34.5971 16.6085 30.4156 16.1752H30.3211L30.5928 15.8504C33.2387 12.6129 37.0067 7.70255 37.0067 7.70255L36.4161 7.10079C36.4161 7.10079 31.5968 10.9399 28.4194 13.6479L28.1714 13.8525C28.1714 13.4433 28.1714 13.022 28.0887 12.5647C27.7225 7.44971 26.9784 0 26.9784 0H26.1161C26.1161 0 25.3838 7.44971 25.0176 12.5647C25.0058 13.0701 24.9349 13.4915 24.9349 13.9007ZM32.4945 25.4424H17.5525L18.899 28.9206L0 77.9399H15.0129L11.9418 69.9485L23.293 29.5224L42.1921 78H53L32.4945 25.4424Z" fill="#0F414E"/>
</svg>
