<svg width="111" height="48" viewBox="0 0 111 48" fill="none" xmlns="http://www.w3.org/2000/svg">
<g filter="url(#filter0_d_111_5307)">
<rect x="2.33337" y="1" width="106.333" height="44" rx="4" fill="white"/>
<g clip-path="url(#clip0_111_5307)">
<path d="M67.5 23C67.5 16.3726 62.1274 11 55.5 11C48.8726 11 43.5 16.3726 43.5 23C43.5 28.9895 47.8882 33.954 53.625 34.8542V26.4688H50.5781V23H53.625V20.3563C53.625 17.3488 55.4166 15.6875 58.1576 15.6875C59.4701 15.6875 60.8438 15.9219 60.8438 15.9219V18.875H59.3306C57.84 18.875 57.375 19.8001 57.375 20.75V23H60.7031L60.1711 26.4688H57.375V34.8542C63.1118 33.954 67.5 28.9895 67.5 23Z" fill="#1877F2"/>
<path d="M60.1711 26.4688L60.7031 23H57.375V20.75C57.375 19.801 57.84 18.875 59.3306 18.875H60.8438V15.9219C60.8438 15.9219 59.4705 15.6875 58.1576 15.6875C55.4166 15.6875 53.625 17.3488 53.625 20.3563V23H50.5781V26.4688H53.625V34.8542C54.8674 35.0486 56.1326 35.0486 57.375 34.8542V26.4688H60.1711Z" fill="white"/>
</g>
<rect x="2.83337" y="1.5" width="105.333" height="43" rx="3.5" stroke="#DDE2E3"/>
</g>
<defs>
<filter id="filter0_d_111_5307" x="0.333374" y="0" width="110.333" height="48" filterUnits="userSpaceOnUse" color-interpolation-filters="sRGB">
<feFlood flood-opacity="0" result="BackgroundImageFix"/>
<feColorMatrix in="SourceAlpha" type="matrix" values="0 0 0 0 0 0 0 0 0 0 0 0 0 0 0 0 0 0 127 0" result="hardAlpha"/>
<feOffset dy="1"/>
<feGaussianBlur stdDeviation="1"/>
<feColorMatrix type="matrix" values="0 0 0 0 0.0627451 0 0 0 0 0.0941176 0 0 0 0 0.156863 0 0 0 0.05 0"/>
<feBlend mode="normal" in2="BackgroundImageFix" result="effect1_dropShadow_111_5307"/>
<feBlend mode="normal" in="SourceGraphic" in2="effect1_dropShadow_111_5307" result="shape"/>
</filter>
<clipPath id="clip0_111_5307">
<rect width="24" height="24" fill="white" transform="translate(43.5 11)"/>
</clipPath>
</defs>
</svg>
