<svg width="111" height="48" viewBox="0 0 111 48" fill="none" xmlns="http://www.w3.org/2000/svg">
<g filter="url(#filter0_d_111_5308)">
<rect x="2.66663" y="1" width="106.333" height="44" rx="4" fill="white"/>
<path d="M64.6758 28.1449C64.3431 28.9135 63.9493 29.6211 63.493 30.2715C62.8711 31.1583 62.3618 31.7721 61.9694 32.113C61.361 32.6724 60.7092 32.959 60.0112 32.9753C59.5101 32.9753 58.9058 32.8327 58.2023 32.5434C57.4966 32.2555 56.848 32.113 56.255 32.113C55.633 32.113 54.966 32.2555 54.2525 32.5434C53.5379 32.8327 52.9623 32.9834 52.5222 32.9984C51.8528 33.0269 51.1856 32.7322 50.5197 32.113C50.0946 31.7422 49.563 31.1067 48.9261 30.2063C48.2428 29.2449 47.681 28.13 47.2408 26.8589C46.7695 25.486 46.5332 24.1565 46.5332 22.8694C46.5332 21.3951 46.8518 20.1235 47.4899 19.0578C47.9914 18.2019 48.6586 17.5267 49.4936 17.0311C50.3286 16.5354 51.2309 16.2828 52.2025 16.2666C52.7342 16.2666 53.4313 16.4311 54.2977 16.7543C55.1617 17.0786 55.7164 17.243 55.9596 17.243C56.1415 17.243 56.7577 17.0507 57.8024 16.6674C58.7903 16.3119 59.6241 16.1647 60.3072 16.2226C62.1581 16.372 63.5487 17.1017 64.4735 18.4162C62.8181 19.4192 61.9992 20.824 62.0155 22.6262C62.0305 24.03 62.5397 25.1981 63.5406 26.1256C63.9941 26.5561 64.5007 26.8888 65.0642 27.1251C64.942 27.4795 64.813 27.819 64.6758 28.1449ZM60.4308 11.4404C60.4308 12.5406 60.0288 13.5679 59.2276 14.5188C58.2607 15.6492 57.0912 16.3024 55.823 16.1993C55.8069 16.0673 55.7975 15.9284 55.7975 15.7824C55.7975 14.7261 56.2573 13.5958 57.0739 12.6715C57.4815 12.2036 58 11.8145 58.6287 11.5041C59.2561 11.1983 59.8496 11.0292 60.4077 11.0002C60.424 11.1473 60.4308 11.2944 60.4308 11.4404V11.4404Z" fill="black"/>
<rect x="3.16663" y="1.5" width="105.333" height="43" rx="3.5" stroke="#DDE2E3"/>
</g>
<defs>
<filter id="filter0_d_111_5308" x="0.666626" y="0" width="110.333" height="48" filterUnits="userSpaceOnUse" color-interpolation-filters="sRGB">
<feFlood flood-opacity="0" result="BackgroundImageFix"/>
<feColorMatrix in="SourceAlpha" type="matrix" values="0 0 0 0 0 0 0 0 0 0 0 0 0 0 0 0 0 0 127 0" result="hardAlpha"/>
<feOffset dy="1"/>
<feGaussianBlur stdDeviation="1"/>
<feColorMatrix type="matrix" values="0 0 0 0 0.0627451 0 0 0 0 0.0941176 0 0 0 0 0.156863 0 0 0 0.05 0"/>
<feBlend mode="normal" in2="BackgroundImageFix" result="effect1_dropShadow_111_5308"/>
<feBlend mode="normal" in="SourceGraphic" in2="effect1_dropShadow_111_5308" result="shape"/>
</filter>
</defs>
</svg>
