<svg width="31" height="30" viewBox="0 0 31 30" fill="none" xmlns="http://www.w3.org/2000/svg">
<path d="M3.83333 13.5L7.16667 10.1667L16.3333 19.3333L22.1667 13.5L27.1667 18.5V3.33333H3.83333V13.5ZM2.16667 0H28.8333C29.2754 0 29.6993 0.175595 30.0118 0.488155C30.3244 0.800716 30.5 1.22464 30.5 1.66667V28.3333C30.5 28.7754 30.3244 29.1993 30.0118 29.5118C29.6993 29.8244 29.2754 30 28.8333 30H2.16667C1.72464 30 1.30072 29.8244 0.988155 29.5118C0.675595 29.1993 0.5 28.7754 0.5 28.3333V1.66667C0.5 1.22464 0.675595 0.800716 0.988155 0.488155C1.30072 0.175595 1.72464 0 2.16667 0ZM21.3333 11.6667C20.6703 11.6667 20.0344 11.4033 19.5656 10.9344C19.0967 10.4656 18.8333 9.82971 18.8333 9.16667C18.8333 8.50362 19.0967 7.86774 19.5656 7.3989C20.0344 6.93006 20.6703 6.66667 21.3333 6.66667C21.9964 6.66667 22.6323 6.93006 23.1011 7.3989C23.5699 7.86774 23.8333 8.50362 23.8333 9.16667C23.8333 9.82971 23.5699 10.4656 23.1011 10.9344C22.6323 11.4033 21.9964 11.6667 21.3333 11.6667Z" fill="#ABB7BA"/>
</svg>
